<svg width="41" height="40" viewBox="0 0 41 40" fill="none" xmlns="http://www.w3.org/2000/svg">
<rect x="0.995117" width="40" height="40" rx="6" fill="#3B5998"/>
<path d="M20.9951 40C32.0408 40 40.9951 31.0457 40.9951 20C40.9951 8.9543 32.0408 0 20.9951 0C9.94942 0 0.995117 8.9543 0.995117 20C0.995117 31.0457 9.94942 40 20.9951 40Z" fill="#3B5998"/>
<path fill-rule="evenodd" clip-rule="evenodd" d="M20.9797 29V19.9989H23.6423L23.9951 16.8971H20.9797L20.9842 15.3446C20.9842 14.5356 21.0666 14.1022 22.3118 14.1022H23.9763V11H21.3133C18.1147 11 16.9889 12.5047 16.9889 15.0352V16.8975H14.9951V19.9993H16.9889V29H20.9797Z" fill="white"/>
</svg>
