<svg width="41" height="40" viewBox="0 0 41 40" fill="none" xmlns="http://www.w3.org/2000/svg">
<rect x="0.995117" width="40" height="40" rx="6" fill="url(#paint0_linear_5_79)"/>
<path d="M27.4336 11H14.5567C13.1028 11 11.9951 12.1077 11.9951 13.5615V26.4385C11.9951 27.8923 13.1028 29 14.5567 29H27.4336C28.8874 29 29.9951 27.8923 29.9951 26.4385V13.5615C29.9951 12.1077 28.8874 11 27.4336 11ZM20.9951 25.4C23.972 25.4 26.3951 23.0462 26.3951 20.2077C26.3951 19.7231 26.3259 19.1692 26.1874 18.7538H27.7105V26.0923C27.7105 26.4385 27.4336 26.7846 27.0182 26.7846H14.972C14.6259 26.7846 14.2797 26.5077 14.2797 26.0923V18.6846H15.872C15.7336 19.1692 15.6644 19.6538 15.6644 20.1385C15.5951 23.0462 18.0182 25.4 20.9951 25.4ZM20.9951 23.3231C19.0567 23.3231 17.5336 21.8 17.5336 19.9308C17.5336 18.0615 19.0567 16.5385 20.9951 16.5385C22.9336 16.5385 24.4567 18.0615 24.4567 19.9308C24.4567 21.8692 22.9336 23.3231 20.9951 23.3231ZM27.6413 15.9154C27.6413 16.3308 27.2951 16.6769 26.8797 16.6769H24.9413C24.5259 16.6769 24.1797 16.3308 24.1797 15.9154V14.0462C24.1797 13.6308 24.5259 13.2846 24.9413 13.2846H26.8797C27.2951 13.2846 27.6413 13.6308 27.6413 14.0462V15.9154Z" fill="white"/>
<defs>
<linearGradient id="paint0_linear_5_79" x1="9.49512" y1="35.5" x2="35.9951" y2="8" gradientUnits="userSpaceOnUse">
<stop stop-color="#EEA054"/>
<stop offset="0.502762" stop-color="#D64763"/>
<stop offset="1" stop-color="#B62A99"/>
</linearGradient>
</defs>
</svg>
