<svg width="14" height="10" viewBox="0 0 14 10" fill="none" xmlns="http://www.w3.org/2000/svg">
<path fill-rule="evenodd" clip-rule="evenodd" d="M5.80436 9.70071C5.41737 10.0947 4.78423 10.1004 4.3902 9.71345L0.299291 5.71345C0.107845 5.52542 -8.2731e-07 5.26834 -8.74228e-07 5C-9.21146e-07 4.73166 0.107844 4.47458 0.299291 4.28655L4.3902 0.286553C4.78423 -0.100437 5.41737 -0.0947336 5.80436 0.299293C6.19135 0.69332 6.18564 1.32646 5.79162 1.71345L3.44531 4L13 4C13.5523 4 14 4.44771 14 5C14 5.55228 13.5523 6 13 6L3.44531 6L5.79162 8.28655C6.18564 8.67354 6.19135 9.30668 5.80436 9.70071Z" fill="white"/>
</svg>
