<svg width="10" height="20" viewBox="0 0 10 20" fill="none" xmlns="http://www.w3.org/2000/svg">
<path d="M3.37456 0.976936C1.1867 3.5705 -5.78993e-07 6.75419 -4.35792e-07 10.0302C-2.92592e-07 13.3063 1.1867 16.49 3.37456 19.0835C3.61565 19.3571 3.91825 19.58 4.26182 19.7372C4.60539 19.8943 4.9819 19.982 5.36579 19.9943C5.74491 20.0181 6.1252 19.967 6.4808 19.8444C6.83641 19.7218 7.15902 19.5307 7.42671 19.2839L9.21882 17.6809C9.66643 17.2713 9.94023 16.7294 9.9913 16.1521C10.0424 15.5748 9.86738 14.9997 9.49759 14.5296L9.17899 14.1015C8.97337 13.81 8.79038 13.5056 8.6314 13.1907C8.44451 12.8035 8.10519 12.4949 7.68091 12.3261C7.25663 12.1574 6.77847 12.1409 6.34149 12.2799L6.10254 12.3619C5.66463 10.8024 5.66463 9.16699 6.10254 7.60752L6.34149 7.68949C6.77847 7.82851 7.25663 7.812 7.68091 7.64325C8.10519 7.4745 8.44451 7.16586 8.6314 6.7787C8.79038 6.46374 8.97337 6.15939 9.17899 5.8679L9.49759 5.43983C9.82375 5.03327 9.99828 4.5415 9.9954 4.03721C9.99628 3.38209 9.71348 2.75332 9.20886 2.28848L7.39684 0.639944C7.12257 0.409059 6.79811 0.233738 6.44469 0.125442C6.09126 0.0171487 5.71683 -0.0216811 5.34587 0.0114954C4.96065 0.0329797 4.58506 0.130375 4.24481 0.297008C3.90456 0.463644 3.6077 0.695579 3.37456 0.976936ZM6.00298 2.01524L7.80504 3.65467C7.91852 3.75432 7.99053 3.88701 8.0087 4.02995C8.02687 4.17288 7.99006 4.31714 7.9046 4.43796C7.76522 4.61101 7.63579 4.78406 7.50636 4.97532C7.28466 5.29607 7.08192 5.62747 6.89903 5.96809L5.81381 5.60377C5.5656 5.52174 5.29194 5.53323 5.05297 5.6357C4.81401 5.73817 4.62929 5.92325 4.53943 6.15025C3.5441 8.65051 3.5441 11.3917 4.53943 13.892C4.62929 14.119 4.81401 14.3041 5.05297 14.4066C5.29194 14.509 5.5656 14.5205 5.81381 14.4385L6.90899 14.0742C7.08455 14.4194 7.28408 14.7541 7.50636 15.076L7.90461 15.6043C7.99959 15.7254 8.042 15.8745 8.0236 16.0226C8.00521 16.1707 7.92731 16.3073 7.80504 16.4058L6.00298 18.0452C5.93945 18.1043 5.86343 18.1509 5.77955 18.1822C5.69568 18.2136 5.60571 18.2289 5.51513 18.2274C5.41287 18.2198 5.31336 18.1933 5.22265 18.1495C5.13194 18.1056 5.05192 18.0454 4.98745 17.9724C3.07084 15.696 2.0315 12.9035 2.0315 10.0302C2.0315 7.15695 3.07084 4.36442 4.98745 2.08811C5.05192 2.01509 5.13194 1.95483 5.22265 1.91099C5.31336 1.86715 5.41287 1.84065 5.51513 1.83308C5.60571 1.83155 5.69568 1.84691 5.77955 1.87823C5.86342 1.90955 5.93945 1.95617 6.00298 2.01524Z" fill="white"/>
</svg>
