<svg width="41" height="40" viewBox="0 0 41 40" fill="none" xmlns="http://www.w3.org/2000/svg">
<rect x="0.995117" width="40" height="40" rx="6" fill="#039BE5"/>
<path d="M20.9951 40C32.0408 40 40.9951 31.0457 40.9951 20C40.9951 8.9543 32.0408 0 20.9951 0C9.94942 0 0.995117 8.9543 0.995117 20C0.995117 31.0457 9.94942 40 20.9951 40Z" fill="#039BE5"/>
<path d="M10.0195 18.4311L29.5299 11.0898C30.4355 10.7706 31.2263 11.3054 30.9329 12.6417L30.9346 12.64L27.6126 27.9133C27.3664 28.9961 26.7071 29.2594 25.7847 28.7493L20.7258 25.1107L18.2857 27.4048C18.0159 27.6681 17.7883 27.8902 17.2655 27.8902L17.6247 22.8661L27.0005 14.6C27.4086 14.2495 26.9094 14.052 26.3715 14.4009L14.785 21.5199L9.79016 19.9994C8.70587 19.6637 8.68226 18.9412 10.0195 18.4311Z" fill="white"/>
</svg>
