<svg width="41" height="40" viewBox="0 0 41 40" fill="none" xmlns="http://www.w3.org/2000/svg">
<rect x="0.995117" width="40" height="40" rx="4" fill="#0077FF"/>
<path fill-rule="evenodd" clip-rule="evenodd" d="M0.995117 20C0.995117 8.95431 9.94942 0 20.9951 0C32.0408 0 40.9951 8.95431 40.9951 20C40.9951 31.0457 32.0408 40 20.9951 40C9.94942 40 0.995117 31.0457 0.995117 20Z" fill="#0077FF"/>
<path d="M20.9731 28C13.4567 28 9.17094 22.7542 8.99512 14.0112H12.7753C12.8962 20.4227 15.6654 23.1353 17.8632 23.6958V14.0112H21.4127V19.5372C23.5775 19.3018 25.8632 16.7798 26.6325 14H30.1709C29.8824 15.439 29.3061 16.8018 28.4779 18.0033C27.6498 19.2048 26.5876 20.2193 25.3578 20.9832C26.7302 21.68 27.9423 22.6656 28.914 23.8751C29.8857 25.0846 30.595 26.4905 30.9951 28H27.094C26.2589 25.3435 24.1709 23.281 21.4127 23.0008V28H20.9841H20.9731Z" fill="white"/>
</svg>
