<svg width="41" height="40" viewBox="0 0 41 40" fill="none" xmlns="http://www.w3.org/2000/svg">
<rect x="0.995117" width="40" height="40" rx="6" fill="#25D366"/>
<rect x="0.995117" width="40" height="40" rx="20" fill="#25D366"/>
<path fill-rule="evenodd" clip-rule="evenodd" d="M28.6951 12.1625C26.6326 10.1 23.8826 9 20.9951 9C14.9451 9 9.99512 13.95 9.99512 20C9.99512 21.925 10.5451 23.85 11.5076 25.5L9.99512 31L15.7701 29.4875C17.4201 30.3125 19.2076 30.8625 20.9951 30.8625C27.0451 30.8625 31.9951 25.9125 31.9951 19.8625C31.9951 16.975 30.7576 14.225 28.6951 12.1625ZM20.9951 29.075C19.3451 29.075 17.6951 28.6625 16.3201 27.8375L16.0451 27.7L12.6076 28.6625L13.5701 25.3625L13.2951 24.95C12.3326 23.4375 11.9201 21.7875 11.9201 20.1375C11.9201 15.1875 16.0451 11.0625 20.9951 11.0625C23.4701 11.0625 25.6701 12.025 27.4576 13.675C29.2451 15.4625 30.0701 17.6625 30.0701 20.1375C30.0701 24.95 26.0826 29.075 20.9951 29.075ZM25.9451 22.2C25.6701 22.0625 24.2951 21.375 24.0201 21.375C23.7451 21.2375 23.6076 21.2375 23.4701 21.5125C23.3326 21.7875 22.7826 22.3375 22.6451 22.6125C22.5076 22.75 22.3701 22.75 22.0951 22.75C21.8201 22.6125 20.9951 22.3375 19.8951 21.375C19.0701 20.6875 18.5201 19.725 18.3826 19.45C18.2451 19.175 18.3826 19.0375 18.5201 18.9C18.6576 18.7625 18.7951 18.625 18.9326 18.4875C19.0701 18.35 19.0701 18.2125 19.2076 18.075C19.3451 17.9375 19.2076 17.8 19.2076 17.6625C19.2076 17.525 18.6576 16.15 18.3826 15.6C18.2451 15.1875 17.9701 15.1875 17.8326 15.1875C17.6951 15.1875 17.5576 15.1875 17.2826 15.1875C17.1451 15.1875 16.8701 15.1875 16.5951 15.4625C16.3201 15.7375 15.6326 16.425 15.6326 17.8C15.6326 19.175 16.5951 20.4125 16.7326 20.6875C16.8701 20.825 18.6576 23.7125 21.4076 24.8125C23.7451 25.775 24.1576 25.5 24.7076 25.5C25.2576 25.5 26.3576 24.8125 26.4951 24.2625C26.7701 23.575 26.7701 23.025 26.6326 23.025C26.4951 22.3375 26.2201 22.3375 25.9451 22.2Z" fill="white"/>
</svg>
