<svg width="41" height="40" viewBox="0 0 41 40" fill="none" xmlns="http://www.w3.org/2000/svg">
<rect x="0.995117" width="40" height="40" rx="6" fill="#F94F4F"/>
<path d="M30.583 15.1907C30.3526 14.334 29.677 13.6588 28.8203 13.4281C27.2553 13 20.9949 13 20.9949 13C20.9949 13 14.7347 13 13.1697 13.4119C12.3295 13.6423 11.6375 14.3342 11.407 15.1907C10.9951 16.7553 10.9951 20 10.9951 20C10.9951 20 10.9951 23.2611 11.407 24.8093C11.6377 25.6658 12.313 26.3411 13.1698 26.5718C14.7512 27 20.9951 27 20.9951 27C20.9951 27 27.2553 27 28.8203 26.5881C29.6772 26.3576 30.3526 25.6823 30.5833 24.8258C30.995 23.2611 30.995 20.0165 30.995 20.0165C30.995 20.0165 31.0115 16.7553 30.583 15.1907ZM19.0017 22.9976V17.0024L24.2075 20L19.0017 22.9976Z" fill="white"/>
</svg>
